<svg id="Capa_1" data-name="Capa 1" xmlns="http://www.w3.org/2000/svg" viewBox="0 0 500.12 500.12"><defs><style>.cls-1{fill:#fff;}</style></defs><title>Sin título-2</title><path class="cls-1" d="M556.54,646.54H56.42V146.42H556.54Zm-497.8-1.76c1.69,0,3,.05,4.38,0,5.39-.23,10.81.5,16.16-1,2.1-.59,4.16-1.21,6.21-2A34.74,34.74,0,0,0,97.6,634c10.15-10,20.18-20.15,30.27-30.22q29.87-29.8,59.74-59.6,24-24,48-48t47.71-47.84q31.57-31.58,63.19-63.11,27.64-27.6,55.27-55.2,21.08-21.07,42.1-42.2,29.94-30,59.89-59.92c3.25-3.25,6.55-6.45,9.77-9.74,1-1,1.86-1.43,3.07-.39,0,.32.06.64.06,1q0,30.12,0,60.24c0,.95-.21,1.9-.31,2.85-.19,1.82-.33,3.65-.57,5.47-.34,2.67-.75,5.33-1.13,8a1,1,0,0,1-.06.23c-.56,1.79-1.13,3.59-1.68,5.39a58.91,58.91,0,0,1-2.3,7.37,100,100,0,0,1-7.75,14.51,70.06,70.06,0,0,1-8.11,10.43q-11,11.08-22.12,22.11l-48.2,48.18-48,48.06q-24,24-48,48-23.83,23.83-47.69,47.64l-34.4,34.37-28.58,28.59q-16.53,16.54-33.06,33.11a12.67,12.67,0,0,0-1,1.31c1.16.05,1.93.12,2.71.12q101.75,0,203.51,0A5.25,5.25,0,0,0,394,643c12-12.14,24.18-24.21,36.26-36.31q22.93-23,45.83-45.92,13.62-13.62,27.3-27.16c3.46-3.45,6.95-6.87,10.37-10.36.67-.68,1.39-.94,2.09-.51.42.25.6,1,.71,1.6a10.13,10.13,0,0,1,0,1.91v18q0,48.72,0,97.44c0,.93.07,1.85.1,2.71,2.69.54,37.18.46,39.2-.1q0-108.83,0-217.79a4.94,4.94,0,0,0-.47-1.29c-2.17,2.19-4.15,4.21-6.15,6.21q-24,24-48,48t-48,48L399.07,581.6q-11,11-22.07,22a5.52,5.52,0,0,1-4.18,1.91q-45-.07-90,0c-.68,0-1.37-.11-2-.17-.47-1.45.27-2.15,1-2.9q18.36-18.36,36.69-36.74c12.89-12.87,25.84-25.68,38.72-38.55q20.61-20.6,41.15-41.25L463.2,421q19.6-19.62,39.23-39.21c8.18-8.22,16.81-16,24-25.23a134.42,134.42,0,0,0,8.3-11.45c2.83-4.56,5.22-9.39,7.71-14.16,1.24-2.37,2.36-4.81,3.36-7.28.91-2.24,1.6-4.58,2.39-6.87.88-2.58,1.82-5.14,2.62-7.74.66-2.17,1.18-4.38,1.71-6.58a57.8,57.8,0,0,0,1.25-5.78c.52-3.69.88-7.4,1.33-11.1.08-.63.29-1.24.42-1.87a10.74,10.74,0,0,0,.34-1.85q.1-4,.11-7.92,0-61.92,0-123.83c0-.77-.1-1.55-.14-2.28a4,4,0,0,0-.87-.26c-6.2.25-12.42-.63-18.61.81a44,44,0,0,0-13.49,5.48c-4.36,2.73-7.74,6.56-11.34,10.13-8.54,8.48-17,17-25.5,25.54l-25.67,25.68L438,237.55q-14.28,14.26-28.55,28.54l-26,26L355.54,320Q341,334.56,326.47,349.1q-12.68,12.66-25.37,25.31-11.25,11.22-22.47,22.49l-25.5,25.49q-12.82,12.86-25.66,25.7l-25.36,25.34Q191,484.49,180,495.57l-26,26-22.15,22.14-23,23c-2.6,2.6-5.2,5.18-7.79,7.78-.7.71-1.38,1.39-2.69.6-.06-.78-.2-1.72-.2-2.66q0-25.44,0-50.87c0-4,.26-8,.44-12,.09-1.81.27-3.63.43-5.44a13.94,13.94,0,0,1,.29-2.14c.84-3.46,1.66-6.94,2.6-10.38a55.87,55.87,0,0,1,2.33-7.37c1.35-3.14,3-6.15,4.58-9.19a68.89,68.89,0,0,1,11.48-16c5.27-5.52,10.74-10.85,16.14-16.25q13.89-13.9,27.8-27.81c7.49-7.46,15-14.87,22.52-22.35,8.5-8.48,16.95-17,25.46-25.52,10.36-10.34,20.78-20.63,31.13-31,9.62-9.62,19.16-19.32,28.78-29q20.11-20.16,40.3-40.27,21.75-21.74,43.48-43.49,20.26-20.23,40.56-40.4Q413,166.55,429.53,150c.59-.58,1.12-1.24,2.05-2.28-1.65-.05-2.75-.11-3.84-.11q-100.2,0-200.39-.07c-3.23,0-6,.35-7.9,3.18a6.09,6.09,0,0,1-.68.66l-20.72,20.74c-6.33,6.32-12.69,12.61-19,18.95-9.54,9.59-19,19.24-28.59,28.84q-13.1,13.17-26.24,26.29Q113,257.44,101.68,268.69c-.71.7-1.55,1.28-2.66,2.2a22.75,22.75,0,0,1-.87-2.74,12,12,0,0,1,0-2.16q0-57.36,0-114.71c0-1.17-.12-2.33-.18-3.42-3.43-.54-37.33-.38-39.18.19V363.72c0,.72,0,1.44,0,2.16a10.2,10.2,0,0,0,.39,1.46l30.63-30.52,22.3-22.27,22.6-22.6q11.23-11.22,22.46-22.42,14.19-14.19,28.34-28.39l26-26c8.57-8.58,17.18-17.12,25.68-25.77a6.17,6.17,0,0,1,4.87-1.91q44.76.06,89.52,0h2.94a18.54,18.54,0,0,1-1.64,2.55q-14.6,14.72-29.25,29.37Q286.27,236.74,268.88,254q-18.63,18.63-37.22,37.3-20.4,20.42-40.83,40.79c-7.42,7.42-14.78,14.9-22.21,22.31s-15.15,15-22.68,22.49q-12.72,12.72-25.34,25.54c-8.61,8.68-17.29,17.29-25.79,26.08a108.07,108.07,0,0,0-8.89,10.57c-2.74,3.66-5.21,7.55-7.62,11.45a91.8,91.8,0,0,0-6.55,12.31c-1.5,3.53-3.06,7-4.5,10.59a70,70,0,0,0-2.35,6.7c-.88,3-1.51,6.16-2.36,9.21a40.29,40.29,0,0,0-1.83,9.22,2.43,2.43,0,0,1-.2,1.17c-.83,1.22-.63,2.59-.73,3.93-.15,1.8.23,3.68-.84,5.36a2.94,2.94,0,0,0-.14,1.41c0,3-.06,6.08-.06,9.12V644.78Z" transform="translate(-56.42 -146.42)"/><path d="M58.74,644.78V519.59c0-3,0-6.08.06-9.12a2.94,2.94,0,0,1,.14-1.41c1.07-1.68.69-3.56.84-5.36.1-1.34-.1-2.71.73-3.93a2.43,2.43,0,0,0,.2-1.17,40.29,40.29,0,0,1,1.83-9.22c.85-3.05,1.48-6.17,2.36-9.21a70,70,0,0,1,2.35-6.7c1.44-3.55,3-7.06,4.5-10.59a91.8,91.8,0,0,1,6.55-12.31c2.41-3.9,4.88-7.79,7.62-11.45a108.07,108.07,0,0,1,8.89-10.57c8.5-8.79,17.18-17.4,25.79-26.08q12.66-12.78,25.34-25.54c7.53-7.53,15.15-15,22.68-22.49s14.79-14.89,22.21-22.31q20.4-20.42,40.83-40.79,18.63-18.63,37.22-37.3,17.36-17.35,34.75-34.66,14.65-14.64,29.25-29.37a18.54,18.54,0,0,0,1.64-2.55h-2.94q-44.76,0-89.52,0a6.17,6.17,0,0,0-4.87,1.91c-8.5,8.65-17.11,17.19-25.68,25.77l-26,26q-14.17,14.19-28.34,28.39-11.2,11.22-22.46,22.42l-22.6,22.6-22.3,22.27L59.15,367.34a10.2,10.2,0,0,1-.39-1.46c-.06-.72,0-1.44,0-2.16V148.05c1.85-.57,35.75-.73,39.18-.19.06,1.09.18,2.25.18,3.42q0,57.36,0,114.71a12,12,0,0,0,0,2.16,22.75,22.75,0,0,0,.87,2.74c1.11-.92,2-1.5,2.66-2.2q11.28-11.25,22.54-22.52,13.13-13.14,26.24-26.29c9.55-9.6,19-19.25,28.59-28.84,6.31-6.34,12.67-12.63,19-18.95l20.72-20.74a6.09,6.09,0,0,0,.68-.66c1.93-2.83,4.67-3.18,7.9-3.18q100.2.12,200.39.07c1.09,0,2.19.06,3.84.11-.93,1-1.46,1.7-2.05,2.28Q413,166.53,396.45,183.08q-20.25,20.21-40.56,40.4Q334.13,245.2,312.41,267q-20.15,20.14-40.3,40.27c-9.62,9.64-19.16,19.34-28.78,29-10.35,10.36-20.77,20.65-31.13,31-8.51,8.49-17,17-25.46,25.52-7.49,7.48-15,14.89-22.52,22.35Q150.3,429,136.42,442.87c-5.4,5.4-10.87,10.73-16.14,16.25a68.89,68.89,0,0,0-11.48,16c-1.57,3-3.23,6.05-4.58,9.19a55.87,55.87,0,0,0-2.33,7.37c-.94,3.44-1.76,6.92-2.6,10.38a13.94,13.94,0,0,0-.29,2.14c-.16,1.81-.34,3.63-.43,5.44-.18,4-.43,8-.44,12q-.07,25.44,0,50.87c0,.94.14,1.88.2,2.66,1.31.79,2,.11,2.69-.6,2.59-2.6,5.19-5.18,7.79-7.78l23-23,22.15-22.14,26-26Q191,484.5,202.11,473.43l25.36-25.34q12.84-12.84,25.66-25.7l25.5-25.49q11.24-11.25,22.47-22.49,12.67-12.68,25.37-25.31Q341,334.57,355.54,320l27.91-27.88,26-26q14.26-14.28,28.55-28.54l22.29-22.3L486,189.57c8.5-8.52,17-17.06,25.5-25.54,3.6-3.57,7-7.4,11.34-10.13a44,44,0,0,1,13.49-5.48c6.19-1.44,12.41-.56,18.61-.81a4,4,0,0,1,.87.26c0,.73.14,1.51.14,2.28q0,61.92,0,123.83,0,4-.11,7.92a10.74,10.74,0,0,1-.34,1.85c-.13.63-.34,1.24-.42,1.87-.45,3.7-.81,7.41-1.33,11.1a57.8,57.8,0,0,1-1.25,5.78c-.53,2.2-1.05,4.41-1.71,6.58-.8,2.6-1.74,5.16-2.62,7.74-.79,2.29-1.48,4.63-2.39,6.87-1,2.47-2.12,4.91-3.36,7.28-2.49,4.77-4.88,9.6-7.71,14.16a134.42,134.42,0,0,1-8.3,11.45c-7.15,9.19-15.78,17-24,25.23Q482.87,401.46,463.2,421l-64.8,64.89q-20.58,20.63-41.15,41.25c-12.88,12.87-25.83,25.68-38.72,38.55Q300.15,584,281.84,602.45c-.75.75-1.49,1.45-1,2.9.63.06,1.32.17,2,.17q45,0,90,0a5.52,5.52,0,0,0,4.18-1.91q11-11,22.07-22l54.15-54.12q24-24,48-48t48-48c2-2,4-4,6.15-6.21a4.94,4.94,0,0,1,.47,1.29q0,108.93,0,217.79c-2,.56-36.51.64-39.2.1,0-.86-.1-1.78-.1-2.71q0-48.72,0-97.44v-18a10.13,10.13,0,0,0,0-1.91c-.11-.57-.29-1.35-.71-1.6-.7-.43-1.42-.17-2.09.51-3.42,3.49-6.91,6.91-10.37,10.36q-13.65,13.58-27.3,27.16-22.93,22.94-45.83,45.92C418.16,618.82,406,630.89,394,643a5.25,5.25,0,0,1-4.1,1.78q-101.76,0-203.51,0c-.78,0-1.55-.07-2.71-.12a12.67,12.67,0,0,1,1-1.31q16.51-16.56,33.06-33.11l28.58-28.59,34.4-34.37q23.85-23.82,47.69-47.64,24-24,48-48l48-48.06,48.2-48.18q11.07-11.06,22.12-22.11a70.06,70.06,0,0,0,8.11-10.43,100,100,0,0,0,7.75-14.51,58.91,58.91,0,0,0,2.3-7.37c.55-1.8,1.12-3.6,1.68-5.39a1,1,0,0,0,.06-.23c.38-2.66.79-5.32,1.13-8,.24-1.82.38-3.65.57-5.47.1-.95.3-1.9.31-2.85q0-30.12,0-60.24c0-.31,0-.63-.06-1-1.21-1-2.1-.6-3.07.39-3.22,3.29-6.52,6.49-9.77,9.74q-30,30-59.89,59.92-21.06,21.09-42.1,42.2-27.61,27.63-55.27,55.2-31.59,31.56-63.19,63.11-23.88,23.89-47.71,47.84t-48,48q-29.85,29.82-59.74,59.6C117.78,613.89,107.75,624,97.6,634a34.74,34.74,0,0,1-12.11,7.73c-2,.78-4.11,1.4-6.21,2-5.35,1.52-10.77.79-16.16,1C61.78,644.83,60.43,644.78,58.74,644.78Z" transform="translate(-56.42 -146.42)"/></svg>